<?xml version="1.0" encoding="us-ascii" standalone="no"?><svg xmlns="http://www.w3.org/2000/svg" xmlns:xlink="http://www.w3.org/1999/xlink" contentStyleType="text/css" height="617px" preserveAspectRatio="none" style="width:454px;height:617px;background:#FFFFFF;" version="1.1" viewBox="0 0 454 617" width="454px" zoomAndPan="magnify"><defs/><g><!--cluster Animation--><g id="cluster_Animation"><rect fill="none" height="604.18" rx="2.5" ry="2.5" style="stroke:#000000;stroke-width:1.5;" width="441" x="7" y="7"/><text fill="#000000" font-family="sans-serif" font-size="14" font-weight="bold" lengthAdjust="spacing" textLength="75" x="190" y="22.5352">Animation</text></g><!--class particle--><g id="elem_particle"><rect codeLine="7" fill="#3333C4" height="42.1973" id="particle" rx="2.5" ry="2.5" style="stroke:#FFFFFF;stroke-width:1.0;" width="111" x="197.5" y="450.79"/><text fill="#FFFFFF" font-family="Arial" font-size="14" lengthAdjust="spacing" textLength="51" x="227.5" y="468.9218">&#171;struct&#187;</text><text fill="#FFFFFF" font-family="Arial" font-size="14" lengthAdjust="spacing" textLength="105" x="200.5" y="485.0205">ParticlesModifier</text></g><!--class firework--><g id="elem_firework"><rect codeLine="8" fill="#3333C4" height="42.1973" id="firework" rx="2.5" ry="2.5" style="stroke:#FFFFFF;stroke-width:1.0;" width="214" x="146" y="552.98"/><text fill="#FFFFFF" font-family="Arial" font-size="14" lengthAdjust="spacing" textLength="51" x="227.5" y="571.1118">&#171;struct&#187;</text><text fill="#FFFFFF" font-family="Arial" font-size="14" lengthAdjust="spacing" textLength="208" x="149" y="587.2105">FireworkParticlesGeometryEffect</text></g><!--class circles--><g id="elem_circles"><rect codeLine="9" fill="#3333C4" height="42.1973" id="circles" rx="2.5" ry="2.5" style="stroke:#FFFFFF;stroke-width:1.0;" width="139" x="23.5" y="450.79"/><text fill="#FFFFFF" font-family="Arial" font-size="14" lengthAdjust="spacing" textLength="51" x="67.5" y="468.9218">&#171;struct&#187;</text><text fill="#FFFFFF" font-family="Arial" font-size="14" lengthAdjust="spacing" textLength="133" x="26.5" y="485.0205">RadiatingCirclesView</text></g><!--class peg--><g id="elem_peg"><rect codeLine="10" fill="#3333C4" height="42.1973" id="peg" rx="2.5" ry="2.5" style="stroke:#FFFFFF;stroke-width:1.0;" width="61" x="209.5" y="42"/><text fill="#FFFFFF" font-family="Arial" font-size="14" lengthAdjust="spacing" textLength="51" x="214.5" y="60.1318">&#171;struct&#187;</text><text fill="#FFFFFF" font-family="Arial" font-size="14" lengthAdjust="spacing" textLength="55" x="212.5" y="76.2305">PegView</text></g><!--class activePeg--><g id="elem_activePeg"><rect codeLine="11" fill="#3333C4" height="42.1973" id="activePeg" rx="2.5" ry="2.5" style="stroke:#FFFFFF;stroke-width:1.0;" width="99" x="120.5" y="144.19"/><text fill="#FFFFFF" font-family="Arial" font-size="14" lengthAdjust="spacing" textLength="51" x="144.5" y="162.3218">&#171;struct&#187;</text><text fill="#FFFFFF" font-family="Arial" font-size="14" lengthAdjust="spacing" textLength="93" x="123.5" y="178.4205">ActivePegView</text></g><!--class inactivePeg--><g id="elem_inactivePeg"><rect codeLine="12" fill="#3333C4" height="42.1973" id="inactivePeg" rx="2.5" ry="2.5" style="stroke:#FFFFFF;stroke-width:1.0;" width="110" x="255" y="144.19"/><text fill="#FFFFFF" font-family="Arial" font-size="14" lengthAdjust="spacing" textLength="51" x="284.5" y="162.3218">&#171;struct&#187;</text><text fill="#FFFFFF" font-family="Arial" font-size="14" lengthAdjust="spacing" textLength="104" x="258" y="178.4205">InactivePegView</text></g><!--class imageOverlay--><g id="elem_imageOverlay"><rect codeLine="13" fill="#3333C4" height="42.1973" id="imageOverlay" rx="2.5" ry="2.5" style="stroke:#FFFFFF;stroke-width:1.0;" width="95" x="122.5" y="246.39"/><text fill="#FFFFFF" font-family="Arial" font-size="14" lengthAdjust="spacing" textLength="51" x="144.5" y="264.5218">&#171;struct&#187;</text><text fill="#FFFFFF" font-family="Arial" font-size="14" lengthAdjust="spacing" textLength="89" x="125.5" y="280.6205">ImageOverlay</text></g><!--class circlesOverlay--><g id="elem_circlesOverlay"><rect codeLine="14" fill="#3333C4" height="42.1973" id="circlesOverlay" rx="2.5" ry="2.5" style="stroke:#FFFFFF;stroke-width:1.0;" width="98" x="54" y="348.59"/><text fill="#FFFFFF" font-family="Arial" font-size="14" lengthAdjust="spacing" textLength="51" x="77.5" y="366.7218">&#171;struct&#187;</text><text fill="#FFFFFF" font-family="Arial" font-size="14" lengthAdjust="spacing" textLength="92" x="57" y="382.8205">CirclesOverlay</text></g><!--class particlesOverlay--><g id="elem_particlesOverlay"><rect codeLine="15" fill="#3333C4" height="42.1973" id="particlesOverlay" rx="2.5" ry="2.5" style="stroke:#FFFFFF;stroke-width:1.0;" width="109" x="198.5" y="348.59"/><text fill="#FFFFFF" font-family="Arial" font-size="14" lengthAdjust="spacing" textLength="51" x="227.5" y="366.7218">&#171;struct&#187;</text><text fill="#FFFFFF" font-family="Arial" font-size="14" lengthAdjust="spacing" textLength="103" x="201.5" y="382.8205">ParticlesOverlay</text></g><!--class jagged--><g id="elem_jagged"><rect codeLine="16" fill="#3333C4" height="42.1973" id="jagged" rx="2.5" ry="2.5" style="stroke:#FFFFFF;stroke-width:1.0;" width="89" x="343.5" y="450.79"/><text fill="#FFFFFF" font-family="Arial" font-size="14" lengthAdjust="spacing" textLength="51" x="362.5" y="468.9218">&#171;struct&#187;</text><text fill="#FFFFFF" font-family="Arial" font-size="14" lengthAdjust="spacing" textLength="83" x="346.5" y="485.0205">JaggedCircle</text></g><!--link particle to firework--><g id="link_particle_firework"><path codeLine="18" d="M253,493.16 C253,508.41 253,529.44 253,546.11 " fill="none" id="particle-to-firework" style="stroke:#101086;stroke-width:1.1;stroke-dasharray:7.0,7.0;"/><polygon fill="#101086" points="253,550.98,257,541.98,253,545.98,249,541.98,253,550.98" style="stroke:#101086;stroke-width:1.1;"/></g><!--link peg to activePeg--><g id="link_peg_activePeg"><path codeLine="20" d="M225.83,84.37 C214.9,100.02 199.7,121.78 187.92,138.64 " fill="none" id="peg-to-activePeg" style="stroke:#101086;stroke-width:1.1;stroke-dasharray:7.0,7.0;"/><polygon fill="#101086" points="185.25,142.46,193.6774,137.363,188.1087,138.3578,187.1139,132.7891,185.25,142.46" style="stroke:#101086;stroke-width:1.1;"/></g><!--link peg to inactivePeg--><g id="link_peg_inactivePeg"><path codeLine="21" d="M254.17,84.37 C265.1,100.02 280.3,121.78 292.08,138.64 " fill="none" id="peg-to-inactivePeg" style="stroke:#101086;stroke-width:1.1;stroke-dasharray:7.0,7.0;"/><polygon fill="#101086" points="294.75,142.46,292.8861,132.7891,291.8913,138.3578,286.3226,137.363,294.75,142.46" style="stroke:#101086;stroke-width:1.1;"/></g><!--link activePeg to imageOverlay--><g id="link_activePeg_imageOverlay"><path codeLine="23" d="M170,186.57 C170,201.81 170,222.85 170,239.52 " fill="none" id="activePeg-to-imageOverlay" style="stroke:#101086;stroke-width:1.1;stroke-dasharray:7.0,7.0;"/><polygon fill="#101086" points="170,244.39,174,235.39,170,239.39,166,235.39,170,244.39" style="stroke:#101086;stroke-width:1.1;"/></g><!--link imageOverlay to circlesOverlay--><g id="link_imageOverlay_circlesOverlay"><path codeLine="25" d="M156.44,288.77 C145.98,304.42 131.43,326.17 120.15,343.03 " fill="none" id="imageOverlay-to-circlesOverlay" style="stroke:#101086;stroke-width:1.1;stroke-dasharray:7.0,7.0;"/><polygon fill="#101086" points="117.61,346.84,125.9305,341.5703,120.3835,342.6797,119.2741,337.1327,117.61,346.84" style="stroke:#101086;stroke-width:1.1;"/></g><!--link imageOverlay to particlesOverlay--><g id="link_imageOverlay_particlesOverlay"><path codeLine="26" d="M186.8,288.77 C199.87,304.55 218.09,326.55 232.11,343.47 " fill="none" id="imageOverlay-to-particlesOverlay" style="stroke:#101086;stroke-width:1.1;stroke-dasharray:7.0,7.0;"/><polygon fill="#101086" points="234.98,346.93,232.312,337.4494,231.7875,343.0819,226.155,342.5574,234.98,346.93" style="stroke:#101086;stroke-width:1.1;"/></g><!--link circlesOverlay to circles--><g id="link_circlesOverlay_circles"><path codeLine="28" d="M100.98,390.96 C99.45,406.21 97.36,427.25 95.69,443.91 " fill="none" id="circlesOverlay-to-circles" style="stroke:#101086;stroke-width:1.1;stroke-dasharray:7.0,7.0;"/><polygon fill="#101086" points="95.21,448.79,100.0906,440.2355,95.7103,443.8151,92.1307,439.4349,95.21,448.79" style="stroke:#101086;stroke-width:1.1;"/></g><!--link particlesOverlay to jagged--><g id="link_particlesOverlay_jagged"><path codeLine="30" d="M280.65,391.21 C302.3,407.28 332.49,429.69 355.34,446.64 " fill="none" id="particlesOverlay-to-jagged" style="stroke:#101086;stroke-width:1.1;stroke-dasharray:7.0,7.0;"/><polygon fill="#101086" points="359.18,449.49,354.326,440.9204,355.1612,446.5152,349.5663,447.3505,359.18,449.49" style="stroke:#101086;stroke-width:1.1;"/></g><!--link particlesOverlay to particle--><g id="link_particlesOverlay_particle"><path codeLine="31" d="M253,390.96 C253,406.21 253,427.25 253,443.91 " fill="none" id="particlesOverlay-to-particle" style="stroke:#101086;stroke-width:1.1;stroke-dasharray:7.0,7.0;"/><polygon fill="#101086" points="253,448.78,257,439.78,253,443.78,249,439.78,253,448.78" style="stroke:#101086;stroke-width:1.1;"/></g><!--SRC=[VP9HQuCm58NVyoioVu1Gs6CHEjbAHuUZb3qDoYLUtPqnaIIsbFtvMRLjMaFVp3ddqtjkV28bP9iZj-ueCMxQMZ9RaMh0GCt167tO_f2e55hBP_7itaorr8Qli-KgtQNPEjlijizUHaYmzWL4LHhTgdoIPgpfJ2YHHmj5DJZIAlfZwGdZqNnkdMc5Iv9lzGd6aP1eFtHE1Q69E5ZUZ6g8U2E31ssg2xb4NQCpnzUYGE5wlXWp8Nu3ENK3gJ8bSyA_20yz98PpS4eiBx46or1a8HpjqG_2MGd5Lmec0Ad7IDqjDDkZaN0SyfuG0iQ2FY9kf8SNucFDdHW2tw4iCH- -sKE_lN3w5GQOnt5olHdMxR5NhftFYhy7TdaSBByoyq-zVLTluazwi5l2Vybry1jtR1Nqpk8_]--></g></svg>