<?xml version="1.0" encoding="us-ascii" standalone="no"?><svg xmlns="http://www.w3.org/2000/svg" xmlns:xlink="http://www.w3.org/1999/xlink" contentStyleType="text/css" height="318px" preserveAspectRatio="none" style="width:644px;height:318px;background:#FFFFFF;" version="1.1" viewBox="0 0 644 318" width="644px" zoomAndPan="magnify"><defs/><g><rect fill="#C8C8FA" height="299.1504" style="stroke:#181818;stroke-width:0.5;" width="169" x="16" y="6"/><text fill="#FFFFFF" font-family="sans-serif" font-size="13" font-weight="bold" lengthAdjust="spacing" textLength="73" x="62" y="18.5684">ViewModel</text><rect fill="#F97181" height="299.1504" style="stroke:#181818;stroke-width:0.5;" width="132" x="262.5" y="6"/><text fill="#FFFFFF" font-family="sans-serif" font-size="13" font-weight="bold" lengthAdjust="spacing" textLength="86" x="283.5" y="18.5684">GameEngine</text><rect fill="#83E769" height="299.1504" style="stroke:#181818;stroke-width:0.5;" width="142" x="490.5" y="6"/><text fill="#FFFFFF" font-family="sans-serif" font-size="13" font-weight="bold" lengthAdjust="spacing" textLength="97" x="511" y="18.5684">PhysicsEngine</text><rect fill="#FFFFFF" height="198.041" style="stroke:#181818;stroke-width:1.0;" width="10" x="323.5" y="88.1094"/><rect fill="#FFFFFF" height="31.4883" style="stroke:#181818;stroke-width:1.0;" width="10" x="556.5" y="136.4199"/><rect fill="#FFFFFF" height="59.6211" style="stroke:#181818;stroke-width:1.0;" width="10" x="556.5" y="197.2188"/><rect fill="none" height="191.041" style="stroke:#000000;stroke-width:1.5;" width="628.5" x="10" y="103.1094"/><line style="stroke:#181818;stroke-width:0.5;stroke-dasharray:5.0,5.0;" x1="100" x2="100" y1="56.7988" y2="311.1504"/><line style="stroke:#181818;stroke-width:0.5;stroke-dasharray:5.0,5.0;" x1="328.5" x2="328.5" y1="56.7988" y2="311.1504"/><line style="stroke:#181818;stroke-width:0.5;stroke-dasharray:5.0,5.0;" x1="561.5" x2="561.5" y1="151.1641" y2="311.1504"/><rect fill="#3333C4" height="30.4883" rx="2.5" ry="2.5" style="stroke:#181818;stroke-width:0.5;" width="141" x="30" y="25.3105"/><text fill="#FFFFFF" font-family="sans-serif" font-size="14" lengthAdjust="spacing" textLength="127" x="37" y="45.8457">:CanvasViewModel</text><rect fill="#9D0012" height="30.4883" rx="2.5" ry="2.5" style="stroke:#181818;stroke-width:0.5;" width="104" x="276.5" y="25.3105"/><text fill="#FFFFFF" font-family="sans-serif" font-size="14" lengthAdjust="spacing" textLength="90" x="283.5" y="45.8457">:GameEngine</text><rect fill="#FFFFFF" height="198.041" style="stroke:#181818;stroke-width:1.0;" width="10" x="323.5" y="88.1094"/><rect fill="#FFFFFF" height="31.4883" style="stroke:#181818;stroke-width:1.0;" width="10" x="556.5" y="136.4199"/><rect fill="#FFFFFF" height="59.6211" style="stroke:#181818;stroke-width:1.0;" width="10" x="556.5" y="197.2188"/><polygon fill="#181818" points="311.5,84.1094,321.5,88.1094,311.5,92.1094,315.5,88.1094" style="stroke:#181818;stroke-width:1.0;"/><line style="stroke:#181818;stroke-width:1.0;" x1="0" x2="317.5" y1="88.1094" y2="88.1094"/><text fill="#000000" font-family="sans-serif" font-size="13" lengthAdjust="spacing" textLength="124" x="99.75" y="83.3672">updateBallPosition()</text><path d="M10,103.1094 L72,103.1094 L72,110.4199 L62,120.4199 L10,120.4199 L10,103.1094 " fill="#EEEEEE" style="stroke:#000000;stroke-width:1.5;"/><rect fill="none" height="191.041" style="stroke:#000000;stroke-width:1.5;" width="628.5" x="10" y="103.1094"/><text fill="#000000" font-family="sans-serif" font-size="13" font-weight="bold" lengthAdjust="spacing" textLength="17" x="25" y="116.6777">alt</text><text fill="#000000" font-family="sans-serif" font-size="11" font-weight="bold" lengthAdjust="spacing" textLength="107" x="87" y="115.7441">[collision detected]</text><polygon fill="#181818" points="492.5,122.4199,502.5,126.4199,492.5,130.4199,496.5,126.4199" style="stroke:#181818;stroke-width:1.0;"/><line style="stroke:#181818;stroke-width:1.0;" x1="333.5" x2="498.5" y1="126.4199" y2="126.4199"/><rect fill="#1D8900" height="30.4883" rx="2.5" ry="2.5" style="stroke:#181818;stroke-width:0.5;" width="114" x="504.5" y="120.4199"/><text fill="#FFFFFF" font-family="sans-serif" font-size="14" lengthAdjust="spacing" textLength="100" x="511.5" y="140.9551">:PhysicsEngine</text><polygon fill="#181818" points="344.5,163.9082,334.5,167.9082,344.5,171.9082,340.5,167.9082" style="stroke:#181818;stroke-width:1.0;"/><line style="stroke:#181818;stroke-width:1.0;stroke-dasharray:2.0,2.0;" x1="338.5" x2="560.5" y1="167.9082" y2="167.9082"/><polygon fill="#181818" points="544.5,193.2188,554.5,197.2188,544.5,201.2188,548.5,197.2188" style="stroke:#181818;stroke-width:1.0;"/><line style="stroke:#181818;stroke-width:1.0;" x1="333.5" x2="550.5" y1="197.2188" y2="197.2188"/><text fill="#000000" font-family="sans-serif" font-size="13" lengthAdjust="spacing" textLength="133" x="378.5" y="192.4766">doElasticCollision(...)</text><rect fill="none" height="25.3105" style="stroke:#000000;stroke-width:1.5;" width="368" x="263.5" y="205.2188"/><path d="M263.5,205.2188 L327.5,205.2188 L327.5,212.2188 L317.5,222.2188 L263.5,222.2188 L263.5,205.2188 " fill="#EEEEEE" style="stroke:#000000;stroke-width:2.0;"/><text fill="#000000" font-family="sans-serif" font-size="13" font-weight="bold" lengthAdjust="spacing" textLength="19" x="276.5" y="219.7871">ref</text><polygon fill="#181818" points="344.5,252.8398,334.5,256.8398,344.5,260.8398,340.5,256.8398" style="stroke:#181818;stroke-width:1.0;"/><line style="stroke:#181818;stroke-width:1.0;stroke-dasharray:2.0,2.0;" x1="338.5" x2="560.5" y1="256.8398" y2="256.8398"/><text fill="#000000" font-family="sans-serif" font-size="13" lengthAdjust="spacing" textLength="199" x="348" y="252.0977">updated motion object position</text><polygon fill="#181818" points="111.5,282.1504,101.5,286.1504,111.5,290.1504,107.5,286.1504" style="stroke:#181818;stroke-width:1.0;"/><line style="stroke:#181818;stroke-width:1.0;stroke-dasharray:2.0,2.0;" x1="105.5" x2="327.5" y1="286.1504" y2="286.1504"/><text fill="#000000" font-family="sans-serif" font-size="13" lengthAdjust="spacing" textLength="199" x="115" y="281.4082">updated motion object position</text><!--SRC=[bP3DJiCm48JlVefjJwtKHkAQ0mT2L5LAbGe15mwLQo_5oB6js0dqxN6SdoQ82l3DuzblnpCJYicA8rXtbXYPgf247FKdF0lys6cE4h9yiqqEIPxb3uV76s9ewGGJXYe7ypYXggPsCC-1MgYByGn1nS4JM-o65fYgar08k_m-pQvnBxw0FFdhU60AtR-ThM2supvjhq4dli0rhJBCNBWlwzjsQmoLuTJX7PLohwrmGgl5ab3cHEtbO2BW3vKEc9PIMEy0ZWwPGnwUM8cDjTiMfC3sEyRQm1oBVSHr5oY877_qVeF6m7KggVKL97smHHH5os0kyHLqZMMOMaquleM_1-eBub3efXpGntV_TJ1TMRy7zg2w-2zcwA89-mK0]--></g></svg>