<?xml version="1.0" encoding="us-ascii" standalone="no"?><svg xmlns="http://www.w3.org/2000/svg" xmlns:xlink="http://www.w3.org/1999/xlink" contentStyleType="text/css" height="498px" preserveAspectRatio="none" style="width:360px;height:498px;background:#FFFFFF;" version="1.1" viewBox="0 0 360 498" width="360px" zoomAndPan="magnify"><defs/><g><!--cluster Model--><g id="cluster_Model"><rect fill="none" height="485.89" rx="2.5" ry="2.5" style="stroke:#000000;stroke-width:1.5;" width="347" x="7" y="7"/><text fill="#000000" font-family="sans-serif" font-size="14" font-weight="bold" lengthAdjust="spacing" textLength="44" x="158.5" y="22.5352">Model</text></g><!--class Disappear--><g id="elem_Disappear"><rect codeLine="8" fill="#9D0012" height="42.1973" id="Disappear" rx="2.5" ry="2.5" style="stroke:#FFFFFF;stroke-width:1.0;" width="112" x="38" y="42"/><text fill="#FFFFFF" font-family="Arial" font-size="14" lengthAdjust="spacing" textLength="68" x="60" y="60.1318">&#171;Protocol&#187;</text><text fill="#FFFFFF" font-family="Arial" font-size="14" lengthAdjust="spacing" textLength="106" x="41" y="76.2305">DisappearObject</text></g><!--class Movable--><g id="elem_Movable"><rect codeLine="9" fill="#9D0012" height="42.1973" id="Movable" rx="2.5" ry="2.5" style="stroke:#FFFFFF;stroke-width:1.0;" width="101" x="45.5" y="246.4"/><text fill="#FFFFFF" font-family="Arial" font-size="14" lengthAdjust="spacing" textLength="68" x="62" y="264.5318">&#171;Protocol&#187;</text><text fill="#FFFFFF" font-family="Arial" font-size="14" lengthAdjust="spacing" textLength="95" x="48.5" y="280.6305">MovableObject</text></g><!--class CircularMovable--><g id="elem_CircularMovable"><rect codeLine="10" fill="#9D0012" height="42.1973" id="CircularMovable" rx="2.5" ry="2.5" style="stroke:#FFFFFF;stroke-width:1.0;" width="150" x="23" y="348.59"/><text fill="#FFFFFF" font-family="Arial" font-size="14" lengthAdjust="spacing" textLength="68" x="64" y="366.7218">&#171;Protocol&#187;</text><text fill="#FFFFFF" font-family="Arial" font-size="14" lengthAdjust="spacing" textLength="144" x="26" y="382.8205">CircularMovableObject</text></g><!--class StateChange--><g id="elem_StateChange"><rect codeLine="11" fill="#9D0012" height="42.1973" id="StateChange" rx="2.5" ry="2.5" style="stroke:#FFFFFF;stroke-width:1.0;" width="130" x="208" y="348.59"/><text fill="#FFFFFF" font-family="Arial" font-size="14" lengthAdjust="spacing" textLength="68" x="239" y="366.7218">&#171;Protocol&#187;</text><text fill="#FFFFFF" font-family="Arial" font-size="14" lengthAdjust="spacing" textLength="124" x="211" y="382.8205">StateChangeObject</text></g><!--class Vector--><g id="elem_Vector"><rect codeLine="13" fill="#9D0012" height="42.1973" id="Vector" rx="2.5" ry="2.5" style="stroke:#FFFFFF;stroke-width:1.0;" width="59" x="185.5" y="42"/><text fill="#FFFFFF" font-family="Arial" font-size="14" lengthAdjust="spacing" textLength="53" x="188.5" y="60.1318">&#171;Struct&#187;</text><text fill="#FFFFFF" font-family="Arial" font-size="14" lengthAdjust="spacing" textLength="41" x="194.5" y="76.2305">Vector</text></g><!--class Point--><g id="elem_Point"><rect codeLine="14" fill="#9D0012" height="42.1973" id="Point" rx="2.5" ry="2.5" style="stroke:#FFFFFF;stroke-width:1.0;" width="59" x="279.5" y="42"/><text fill="#FFFFFF" font-family="Arial" font-size="14" lengthAdjust="spacing" textLength="53" x="282.5" y="60.1318">&#171;Struct&#187;</text><text fill="#FFFFFF" font-family="Arial" font-size="14" lengthAdjust="spacing" textLength="32" x="293" y="76.2305">Point</text></g><!--class Level--><g id="elem_Level"><rect codeLine="15" fill="#9D0012" height="42.1973" id="Level" rx="2.5" ry="2.5" style="stroke:#FFFFFF;stroke-width:1.0;" width="59" x="185.5" y="144.2"/><text fill="#FFFFFF" font-family="Arial" font-size="14" lengthAdjust="spacing" textLength="53" x="188.5" y="162.3318">&#171;Struct&#187;</text><text fill="#FFFFFF" font-family="Arial" font-size="14" lengthAdjust="spacing" textLength="34" x="198" y="178.4305">Level</text></g><!--class GameObject--><g id="elem_GameObject"><rect codeLine="18" fill="#9D0012" height="26.0986" id="GameObject" rx="2.5" ry="2.5" style="stroke:#FFFFFF;stroke-width:1.0;" width="86" x="53" y="152.25"/><text fill="#FFFFFF" font-family="Arial" font-size="14" lengthAdjust="spacing" textLength="80" x="56" y="170.3818">GameObject</text></g><!--class MotionObject--><g id="elem_MotionObject"><rect codeLine="19" fill="#9D0012" height="26.0986" id="MotionObject" rx="2.5" ry="2.5" style="stroke:#FFFFFF;stroke-width:1.0;" width="90" x="140" y="450.79"/><text fill="#FFFFFF" font-family="Arial" font-size="14" lengthAdjust="spacing" textLength="84" x="143" y="468.9218">MotionObject</text></g><!--class Peg--><g id="elem_Peg"><rect codeLine="20" fill="#9D0012" height="26.0986" id="Peg" rx="2.5" ry="2.5" style="stroke:#FFFFFF;stroke-width:1.0;" width="50" x="181" y="254.45"/><text fill="#FFFFFF" font-family="Arial" font-size="14" lengthAdjust="spacing" textLength="25" x="193.5" y="272.5818">Peg</text></g><!--reverse link Disappear to GameObject--><g id="link_Disappear_GameObject"><path codeLine="22" d="M94.83,105.62 C95.16,122.33 95.52,140.35 95.75,151.95 " fill="none" id="Disappear-backto-GameObject" style="stroke:#9D0012;stroke-width:1.1;stroke-dasharray:7.0,7.0;"/><polygon fill="none" points="87.84,106.03,94.43,85.89,101.83,105.75,87.84,106.03" style="stroke:#9D0012;stroke-width:1.1;"/></g><!--reverse link GameObject to Movable--><g id="link_GameObject_Movable"><path codeLine="23" d="M96,200.07 C96,215.34 96,232.89 96,246.11 " fill="none" id="GameObject-backto-Movable" style="stroke:#9D0012;stroke-width:1.1;"/><polygon fill="none" points="89,200.1,96,180.1,103,200.1,89,200.1" style="stroke:#9D0012;stroke-width:1.1;"/></g><!--reverse link Movable to CircularMovable--><g id="link_Movable_CircularMovable"><path codeLine="24" d="M96.83,310.07 C97.09,323.19 97.37,337.12 97.59,348.1 " fill="none" id="Movable-backto-CircularMovable" style="stroke:#9D0012;stroke-width:1.1;stroke-dasharray:7.0,7.0;"/><polygon fill="none" points="89.84,310.42,96.43,290.29,103.83,310.14,89.84,310.42" style="stroke:#9D0012;stroke-width:1.1;"/></g><!--reverse link StateChange to MotionObject--><g id="link_StateChange_MotionObject"><path codeLine="26" d="M238.9,406.4 C224.08,421.92 207.68,439.09 196.91,450.37 " fill="none" id="StateChange-backto-MotionObject" style="stroke:#9D0012;stroke-width:1.1;stroke-dasharray:7.0,7.0;"/><polygon fill="none" points="233.55,401.87,252.42,392.24,243.67,411.54,233.55,401.87" style="stroke:#9D0012;stroke-width:1.1;"/></g><!--reverse link CircularMovable to MotionObject--><g id="link_CircularMovable_MotionObject"><path codeLine="27" d="M131.71,406.4 C146.37,421.92 162.58,439.09 173.23,450.37 " fill="none" id="CircularMovable-backto-MotionObject" style="stroke:#9D0012;stroke-width:1.1;stroke-dasharray:7.0,7.0;"/><polygon fill="none" points="126.99,411.59,118.35,392.24,137.17,401.98,126.99,411.59" style="stroke:#9D0012;stroke-width:1.1;"/></g><!--reverse link GameObject to Peg--><g id="link_GameObject_Peg"><path codeLine="29" d="M125.09,192.79 C146.87,212.64 175.69,238.89 192.4,254.11 " fill="none" id="GameObject-backto-Peg" style="stroke:#9D0012;stroke-width:1.1;"/><polygon fill="none" points="120.68,198.25,110.61,179.6,130.11,187.9,120.68,198.25" style="stroke:#9D0012;stroke-width:1.1;"/></g><!--SRC=[TP7BJiCm44Nt_WhJVIDrNsL1YjWqIaGHAoGqTQpKnF5OVXGXuD_94vn7TwEvvux7T-w4Oj8Nd5htANcaVIs9hOJIOA2cO0n-F5y4gnItbkwYtLnCKAAXQNPuEBubsJ5x2W0cmTfxO5LfqAjYYPAy4Q7aDCM2I_f5ID9Qw6Q_pmqwP2ZZ-5KTX0MjEPZi_CwPsr2mzA-tRadn2cV90yFGMSSJOPYNO9QscR9kFpbmFBc0AaDhq0q-TdB6CzUwNXeGJOVsvHgKer3zkAvQGuxyocM7T1KP7tk4UbXd4delfkW4gfjopilffO9XaTVHTnnSOCY6RhtUDi8_IcRfZTOnJ3BPOX33sDRq-KL8k-lowH_o2m00]--></g></svg>