<?xml version="1.0" encoding="us-ascii" standalone="no"?><svg xmlns="http://www.w3.org/2000/svg" xmlns:xlink="http://www.w3.org/1999/xlink" contentStyleType="text/css" height="348px" preserveAspectRatio="none" style="width:930px;height:348px;background:#FFFFFF;" version="1.1" viewBox="0 0 930 348" width="930px" zoomAndPan="magnify"><defs/><g><!--cluster View--><g id="cluster_View"><rect fill="none" height="335.39" rx="2.5" ry="2.5" style="stroke:#000000;stroke-width:1.5;" width="916" x="8.22" y="7"/><text fill="#000000" font-family="sans-serif" font-size="14" font-weight="bold" lengthAdjust="spacing" textLength="35" x="448.72" y="22.5352">View</text></g><!--class BackgroundView--><g id="elem_BackgroundView"><rect codeLine="7" fill="#3333C4" height="26.0986" id="BackgroundView" rx="2.5" ry="2.5" style="stroke:#FFFFFF;stroke-width:1.0;" width="112" x="615.22" y="128.09"/><text fill="#FFFFFF" font-family="Arial" font-size="14" lengthAdjust="spacing" textLength="106" x="618.22" y="146.2218">BackgroundView</text></g><!--class ClearBackgroundView--><g id="elem_ClearBackgroundView"><rect codeLine="8" fill="#3333C4" height="26.0986" id="ClearBackgroundView" rx="2.5" ry="2.5" style="stroke:#FFFFFF;stroke-width:1.0;" width="146" x="762.22" y="128.09"/><text fill="#FFFFFF" font-family="Arial" font-size="14" lengthAdjust="spacing" textLength="140" x="765.22" y="146.2218">ClearBackgroundView</text></g><!--class CanvasView--><g id="elem_CanvasView"><rect codeLine="9" fill="#3333C4" height="26.0986" id="CanvasView" rx="2.5" ry="2.5" style="stroke:#FFFFFF;stroke-width:1.0;" width="84" x="269.22" y="42"/><text fill="#FFFFFF" font-family="Arial" font-size="14" lengthAdjust="spacing" textLength="78" x="272.22" y="60.1318">CanvasView</text></g><!--class PaletteView--><g id="elem_PaletteView"><rect codeLine="10" fill="#3333C4" height="26.0986" id="PaletteView" rx="2.5" ry="2.5" style="stroke:#FFFFFF;stroke-width:1.0;" width="80" x="61.22" y="128.09"/><text fill="#FFFFFF" font-family="Arial" font-size="14" lengthAdjust="spacing" textLength="74" x="64.22" y="146.2218">PaletteView</text></g><!--class PaletteButtonsView--><g id="elem_PaletteButtonsView"><rect codeLine="11" fill="#3333C4" height="26.0986" id="PaletteButtonsView" rx="2.5" ry="2.5" style="stroke:#FFFFFF;stroke-width:1.0;" width="128" x="61.22" y="214.19"/><text fill="#FFFFFF" font-family="Arial" font-size="14" lengthAdjust="spacing" textLength="122" x="64.22" y="232.3218">PaletteButtonsView</text></g><!--class ActionButtonsView--><g id="elem_ActionButtonsView"><rect codeLine="12" fill="#3333C4" height="26.0986" id="ActionButtonsView" rx="2.5" ry="2.5" style="stroke:#FFFFFF;stroke-width:1.0;" width="123" x="498.72" y="214.19"/><text fill="#FFFFFF" font-family="Arial" font-size="14" lengthAdjust="spacing" textLength="117" x="501.72" y="232.3218">ActionButtonsView</text></g><!--class DeleteButtonView--><g id="elem_DeleteButtonView"><rect codeLine="13" fill="#3333C4" height="26.0986" id="DeleteButtonView" rx="2.5" ry="2.5" style="stroke:#FFFFFF;stroke-width:1.0;" width="118" x="119.22" y="300.29"/><text fill="#FFFFFF" font-family="Arial" font-size="14" lengthAdjust="spacing" textLength="112" x="122.22" y="318.4218">DeleteButtonView</text></g><!--class PegView--><g id="elem_PegView"><rect codeLine="14" fill="#3333C4" height="26.0986" id="PegView" rx="2.5" ry="2.5" style="stroke:#FFFFFF;stroke-width:1.0;" width="61" x="23.72" y="300.29"/><text fill="#FFFFFF" font-family="Arial" font-size="14" lengthAdjust="spacing" textLength="55" x="26.72" y="318.4218">PegView</text></g><!--class LevelSelectionView--><g id="elem_LevelSelectionView"><rect codeLine="15" fill="#3333C4" height="26.0986" id="LevelSelectionView" rx="2.5" ry="2.5" style="stroke:#FFFFFF;stroke-width:1.0;" width="128" x="176.22" y="128.09"/><text fill="#FFFFFF" font-family="Arial" font-size="14" lengthAdjust="spacing" textLength="122" x="179.22" y="146.2218">LevelSelectionView</text></g><!--class ShooterView--><g id="elem_ShooterView"><rect codeLine="16" fill="#3333C4" height="26.0986" id="ShooterView" rx="2.5" ry="2.5" style="stroke:#FFFFFF;stroke-width:1.0;" width="86" x="339.22" y="128.09"/><text fill="#FFFFFF" font-family="Arial" font-size="14" lengthAdjust="spacing" textLength="80" x="342.22" y="146.2218">ShooterView</text></g><!--class MotionObjectView--><g id="elem_MotionObjectView"><rect codeLine="17" fill="#3333C4" height="26.0986" id="MotionObjectView" rx="2.5" ry="2.5" style="stroke:#FFFFFF;stroke-width:1.0;" width="120" x="460.22" y="128.09"/><text fill="#FFFFFF" font-family="Arial" font-size="14" lengthAdjust="spacing" textLength="114" x="463.22" y="146.2218">MotionObjectView</text></g><!--link CanvasView to BackgroundView--><g id="link_CanvasView_BackgroundView"><path codeLine="20" d="M353.58,65.94 C417.48,80.87 538.81,109.21 611.61,126.22 " fill="none" id="CanvasView-to-BackgroundView" style="stroke:#101086;stroke-width:1.1;stroke-dasharray:7.0,7.0;"/><polygon fill="#101086" points="616.16,127.28,608.3115,121.3301,611.2922,126.138,606.4843,129.1186,616.16,127.28" style="stroke:#101086;stroke-width:1.1;"/></g><!--link CanvasView to LevelSelectionView--><g id="link_CanvasView_LevelSelectionView"><path codeLine="21" d="M300.74,68.45 C288.58,82.86 268.44,106.72 254.76,122.92 " fill="none" id="CanvasView-to-LevelSelectionView" style="stroke:#101086;stroke-width:1.1;stroke-dasharray:7.0,7.0;"/><polygon fill="#101086" points="251.72,126.53,260.5798,122.2284,254.9433,122.7077,254.4641,117.0711,251.72,126.53" style="stroke:#101086;stroke-width:1.1;"/></g><!--link CanvasView to PaletteView--><g id="link_CanvasView_PaletteView"><path codeLine="22" d="M280.23,68.45 C242.39,83.61 178.45,109.21 138.11,125.37 " fill="none" id="CanvasView-to-PaletteView" style="stroke:#101086;stroke-width:1.1;stroke-dasharray:7.0,7.0;"/><polygon fill="#101086" points="133.74,127.12,143.5819,127.4914,138.3824,125.263,140.6107,120.0636,133.74,127.12" style="stroke:#101086;stroke-width:1.1;"/></g><!--link CanvasView to PegView--><g id="link_CanvasView_PegView"><path codeLine="23" d="M268.93,61.27 C200.82,70.64 71.65,92.71 44.22,128.09 C6,177.4 31.71,258.3 46.21,294.21 " fill="none" id="CanvasView-to-PegView" style="stroke:#101086;stroke-width:1.1;stroke-dasharray:7.0,7.0;"/><polygon fill="#101086" points="48.02,298.57,48.2659,288.7242,46.104,293.9517,40.8766,291.7898,48.02,298.57" style="stroke:#101086;stroke-width:1.1;"/></g><!--link CanvasView to ShooterView--><g id="link_CanvasView_ShooterView"><path codeLine="24" d="M321.7,68.45 C333.86,82.86 354,106.72 367.68,122.92 " fill="none" id="CanvasView-to-ShooterView" style="stroke:#101086;stroke-width:1.1;stroke-dasharray:7.0,7.0;"/><polygon fill="#101086" points="370.72,126.53,367.9759,117.0711,367.4967,122.7077,361.8602,122.2284,370.72,126.53" style="stroke:#101086;stroke-width:1.1;"/></g><!--link CanvasView to MotionObjectView--><g id="link_CanvasView_MotionObjectView"><path codeLine="25" d="M342.06,68.45 C379.72,83.61 443.36,109.21 483.51,125.37 " fill="none" id="CanvasView-to-MotionObjectView" style="stroke:#101086;stroke-width:1.1;stroke-dasharray:7.0,7.0;"/><polygon fill="#101086" points="487.85,127.12,480.998,120.0454,483.2126,125.2508,478.0072,127.4653,487.85,127.12" style="stroke:#101086;stroke-width:1.1;"/></g><!--link PaletteView to PaletteButtonsView--><g id="link_PaletteView_PaletteButtonsView"><path codeLine="27" d="M104.76,154.55 C108.77,168.59 115.33,191.59 119.94,207.75 " fill="none" id="PaletteView-to-PaletteButtonsView" style="stroke:#101086;stroke-width:1.1;stroke-dasharray:7.0,7.0;"/><polygon fill="#101086" points="121.25,212.33,122.6313,202.5785,119.8802,207.5213,114.9373,204.7702,121.25,212.33" style="stroke:#101086;stroke-width:1.1;"/></g><!--link PaletteView to ActionButtonsView--><g id="link_PaletteView_ActionButtonsView"><path codeLine="28" d="M141.67,150.86 C147.22,152 152.86,153.15 158.22,154.19 C275.38,177.07 412.31,201.02 492.34,214.74 " fill="none" id="PaletteView-to-ActionButtonsView" style="stroke:#101086;stroke-width:1.1;stroke-dasharray:7.0,7.0;"/><polygon fill="#101086" points="496.98,215.53,488.7831,210.0701,492.0515,214.6872,487.4345,217.9557,496.98,215.53" style="stroke:#101086;stroke-width:1.1;"/></g><!--link ClearBackgroundView to ActionButtonsView--><g id="link_ClearBackgroundView_ActionButtonsView"><path codeLine="30" d="M794.35,154.64 C744.21,169.98 659.42,195.91 606.8,212 " fill="none" id="ClearBackgroundView-to-ActionButtonsView" style="stroke:#101086;stroke-width:1.1;stroke-dasharray:7.0,7.0;"/><polygon fill="#101086" points="602.32,213.37,612.0949,214.5751,607.1032,211.9136,609.7647,206.922,602.32,213.37" style="stroke:#101086;stroke-width:1.1;"/></g><!--link PaletteButtonsView to DeleteButtonView--><g id="link_PaletteButtonsView_DeleteButtonView"><path codeLine="32" d="M133.04,240.65 C142.04,254.94 156.9,278.51 167.1,294.7 " fill="none" id="PaletteButtonsView-to-DeleteButtonView" style="stroke:#101086;stroke-width:1.1;stroke-dasharray:7.0,7.0;"/><polygon fill="#101086" points="169.56,298.6,168.1732,288.8493,166.9062,294.3624,161.393,293.0954,169.56,298.6" style="stroke:#101086;stroke-width:1.1;"/></g><!--link PaletteButtonsView to PegView--><g id="link_PaletteButtonsView_PegView"><path codeLine="33" d="M114.74,240.65 C102.58,255.06 82.44,278.92 68.76,295.12 " fill="none" id="PaletteButtonsView-to-PegView" style="stroke:#101086;stroke-width:1.1;stroke-dasharray:7.0,7.0;"/><polygon fill="#101086" points="65.72,298.72,74.5798,294.4184,68.9433,294.8977,68.4641,289.2611,65.72,298.72" style="stroke:#101086;stroke-width:1.1;"/></g><!--SRC=[TP7HQiCm34NV_HNU3mGAUnwi7en1HifQ-beqLwHUN2lOJaiP-_SbeQLod3xwtcFfIdeoJjjkZpB4YyMYxOvMXCQu5ZmS9NXFvyt1wCPX279HBAQc8ajUbjNxXzgfggo-TfjdncWB8In1DxMdpkqpMeYsDw56kJLu_XLguENzmw1UHMKH_Bm3xWI12Ikm62FcohABaHn7NtKqv7Bz3ViFLvxNmPgzIZoXNVVaM8GPwmDHHC-KJngGwlkdPqVvJuXxRbaKBzdKgJlNAoMIgIVMBNOg9p5JAyihM7dUZgzkYkJB5JDNV8Jc3KOokym3xZRpFm00]--></g></svg>